<svg xmlns="http://www.w3.org/2000/svg" width="567" height="47" viewBox="0 0 567 47"><defs><style>.a{opacity:0;}.b{fill:none;}.c{fill:#3a51a3;}.c,.e{fill-rule:evenodd;}.d{fill:#f60;}.f{font-size:22px;font-family:MicrosoftYaHeiUI-Bold, Microsoft YaHei UI;font-weight:700;}</style></defs><g transform="translate(-17.8 -148.6)"><g class="a" transform="translate(95.672 161.794)"><path class="b" d="M231.178,200.6q0,12.179-4.5,18.268-.055-.166-3.875-3.543c2.51-3.137,3.691-8.23,3.58-15.316v-10.7h12.326c-.369-1.033-.775-2.03-1.181-3.063l5.388-1.144c.517,1.4,1.033,2.768,1.55,4.207h11.515v4.466H231.215V200.6Z" transform="translate(-222.8 -185.1)"/><path class="b" d="M317.6,197.405h3.912a32.141,32.141,0,0,0-3.358-1.956,29.366,29.366,0,0,0,5.13-9.669l4.5,1.181c-.332.923-.7,1.845-1.033,2.657h5.5V185.3h4.872v4.318h11.736v4.06H337.123v3.727h13.618v4.06H317.6v-4.06Zm3.764,21.368V203.937h25.649v14.836H342.4v-1.808h-16.46v1.808Zm1.144-21.368h9.743v-3.727h-7.418A26.984,26.984,0,0,1,322.508,197.405Zm19.892,10.7h-16.46v4.687H342.4Z" transform="translate(-282.613 -185.226)"/></g><g transform="translate(17.8 148.6)"><g transform="translate(0 3.727)"><path class="c" d="M37.4,158.8l-15.98,39.238-2.768.33-.849,3.667H33.669l-.7-3.667-3.026-.33s2.546-9.5,11.921-9.5c9.337,0,11.921,9.5,11.921,9.5l-3.026.33-.7,3.667H65.925l-.849-3.667-2.768-.33L46.328,158.8H37.4Zm4.392,24.387a15.838,15.838,0,0,0-5.683,1.027l5.683-13.935,5.683,13.935a15.838,15.838,0,0,0-5.683-1.027Z" transform="translate(-17.8 -158.763)"/><path class="d" d="M140.237,163.174l5.314-4.474h8.3v39.275l4.539.33v3.667H142.119v-3.667l3.4-.33V167.024l-5.314,1.32.037-5.171Z" transform="translate(-95.027 -158.7)"/></g><g transform="translate(64.109)"><path class="e" d="M196.74,148.6a3.615,3.615,0,0,1,2.731,1.292,3.461,3.461,0,0,1,.96,2.251,3.812,3.812,0,0,1-3.248,4.1,3.952,3.952,0,0,1-3.063-.7,3.61,3.61,0,0,1-1.513-2.473,3.8,3.8,0,0,1,2.288-4.17A5.074,5.074,0,0,1,196.74,148.6Zm-3.211,3.875c.037.185.037.369.074.59a3.006,3.006,0,0,0,1.033,1.771,2.862,2.862,0,0,0,1.7.664,2.7,2.7,0,0,0,2.436-1.033,3.063,3.063,0,0,0,.627-2.731,2.947,2.947,0,0,0-2.657-2.362,2.9,2.9,0,0,0-1.661.369A3.1,3.1,0,0,0,193.529,152.475Z" transform="translate(-192.552 -148.6)"/><path class="e" d="M202.558,157.649h-.886c-.037,0-.074,0-.111-.074s-.074-.185-.111-.258a3.857,3.857,0,0,1-.148-.627.63.63,0,0,0-.59-.554,3.555,3.555,0,0,0-.627,0v1.439c0,.074-.037.074-.074.074H199.2v-3.764c0-.074,0-.074.074-.074a13.682,13.682,0,0,1,1.735-.111,1.856,1.856,0,0,1,1,.3.965.965,0,0,1-.037,1.587,1.311,1.311,0,0,1-.332.148l-.037.037.037.037a.833.833,0,0,1,.517.48,3.118,3.118,0,0,1,.185.627,2.813,2.813,0,0,0,.221.738Zm-2.436-2.141h.48a1.481,1.481,0,0,0,.554-.111.482.482,0,0,0,.258-.59.616.616,0,0,0-.443-.406,2.005,2.005,0,0,0-.812,0c-.037,0-.037.037-.037.074v1.033Z" transform="translate(-196.747 -151.818)"/></g></g><text class="f" transform="translate(101.8 182)"><tspan x="0" y="0">Servicio Integral De Marketing Y Publicidad</tspan></text></g></svg>