<svg xmlns="http://www.w3.org/2000/svg" width="60" height="60" viewBox="0 0 60 60"><defs><style>.a{fill:#eee;}.b,.e{fill:#fff;}.c{fill:none;}.d,.e{stroke:none;}</style></defs><g transform="translate(-3234 -8467)"><circle class="a" cx="30" cy="30" r="30" transform="translate(3234 8467)"/><g transform="translate(3239 8472)"><g transform="translate(0 13.554) rotate(-45)"><path class="b" d="M.022,20.02c0-.007,0-.015,0-.022s0-.015,0-.023L.01,8.58A8.574,8.574,0,1,1,17.158,8.6l.013,11.4c0,.007,0,.014,0,.021s0,.016,0,.024a1.238,1.238,0,0,1-.368.832q-.059.066-.127.128C15.494,22.1,12.325,22.894,8.6,22.89,3.865,22.884.024,21.6.022,20.02Z" transform="translate(0.002 0)"/><g class="c" transform="translate(0.002 21.466)"><path class="d" d="M8.6,20.028A8.611,8.611,0,0,1,.013,11.439L0,.074C.061.821.98,1.523,2.59,2.049A20.116,20.116,0,0,0,8.58,2.87c4.728.005,8.574-1.274,8.572-2.851l.013,11.439A8.564,8.564,0,0,1,8.6,20.028Z"/><path class="e" d="M 8.608263969421387 20.02762985229492 L 8.608263969421387 19.02762985229492 C 10.62494373321533 19.02762985229492 12.52229309082031 18.24003982543945 13.95079326629639 16.80995941162109 C 15.38039398193359 15.37876892089844 16.16648292541504 13.47837924957275 16.16424369812012 11.45886898040771 L 16.1543140411377 2.494084358215332 C 14.4257926940918 3.351484298706055 11.67459201812744 3.870178937911987 8.608543395996094 3.870178937911987 L 8.578483581542969 3.870158910751343 C 6.227533340454102 3.867548942565918 3.990603446960449 3.558259010314941 2.279763460159302 2.999279022216797 C 1.785784482955933 2.83788275718689 1.363287091255188 2.664606094360352 1.00275444984436 2.484203338623047 L 1.012673497200012 11.43762874603271 C 1.017303586006165 15.61813926696777 4.420833587646484 19.02298927307129 8.598603248596191 19.02761840820313 L 8.604233741760254 19.02761840820313 L 8.605043411254883 19.02762985229492 L 8.608263969421387 20.02762985229492 M 8.608259201049805 20.02762413024902 C 8.604796409606934 20.02762413024902 8.602066993713379 20.02762222290039 8.598603248596191 20.02761840820313 C 3.869543552398682 20.02237892150879 0.01791355386376381 16.16942977905273 0.01267355401068926 11.43873882293701 L 8.355407771887258e-05 0.07441898435354233 C 0.0611235536634922 0.8213989734649658 0.9800235629081726 1.5225989818573 2.590333461761475 2.048728942871094 C 4.203933715820313 2.575938940048218 6.330953598022461 2.867659091949463 8.579593658447266 2.870158910751343 C 8.589117050170898 2.870169639587402 8.599027633666992 2.870174884796143 8.608543395996094 2.870174884796143 C 13.32380867004395 2.870174884796143 17.15331077575684 1.593201875686646 17.15157318115234 0.01901898719370365 L 17.16424369812012 11.45775890350342 C 17.16947937011719 16.18497467041016 13.33184719085693 20.02762413024902 8.608259201049805 20.02762413024902 Z"/></g></g><path class="b" d="M7.322,42.676A24.831,24.831,0,0,1,0,25a25.142,25.142,0,0,1,.755-6.138,11.484,11.484,0,0,0,4.4,3.633A20.292,20.292,0,0,0,5,25,19.99,19.99,0,0,0,36.747,41.177l2.646.658L38.9,39.369A20,20,0,0,0,19.49,5.772a11.49,11.49,0,0,0-4.266-3.8,25.007,25.007,0,0,1,27.454,40.7l-.126.125.721,3.592-3.859-.96A25.012,25.012,0,0,1,7.322,42.676Z" transform="translate(0)"/></g></g></svg>