<svg xmlns="http://www.w3.org/2000/svg" width="28" height="32" viewBox="0 0 28 32"><defs><style>.a{fill:#3a51a3;}</style></defs><path class="a" d="M17517.162-3022h-.127c-2.5-.051-5.7-1.675-8.348-4.237a19.467,19.467,0,0,1-3.68-4.929,18.9,18.9,0,0,1-2.01-6.575v-11.814c.6.044,1.186.067,1.76.067a19.108,19.108,0,0,0,7.5-1.455,13.826,13.826,0,0,0,2.285-1.252h.012a5.571,5.571,0,0,0,.783-.87l.008-.012A1.759,1.759,0,0,1,17517-3054a1.923,1.923,0,0,1,1.906,1.078l.078.1.031.042c.135.176.285.376.473.6a13.967,13.967,0,0,0,2.26,1.236,19.047,19.047,0,0,0,7.5,1.455c.617,0,1.207-.023,1.752-.067v11.81l-.006,0a19.4,19.4,0,0,1-1.951,6.718,18.4,18.4,0,0,1-3.6,4.937C17522.863-3023.564,17519.693-3022,17517.162-3022Zm-5.148-16.373-1.143,1.192,5.059,4.532,9.037-9.326-1.152-1.185-7.885,8.141Z" transform="translate(-17502.998 3053.999)"/></svg>