<svg xmlns="http://www.w3.org/2000/svg" width="24" height="24" viewBox="0 0 24 24"><g transform="translate(-149 2696)"><g transform="translate(154 -2692)"><g transform="translate(-58.689 -12.044)" fill="#ccc" stroke-linejoin="round"><path d="M72.549,15.6h-.015c0-.032,0-.064.006-.094h0a7.637,7.637,0,0,1-1.768-.329c-.173-.051-.344-.109-.517-.171a7.817,7.817,0,0,1-1.427-.626.127.127,0,0,1-.017-.009c-.132-.073-.269-.147-.406-.229-.186-.107-.372-.22-.555-.34l-.021-.013c-.132-.085-.265-.173-.4-.265-.085-.058-.171-.12-.256-.182l-.192-.139-.886-.722-.479-.444a13.646,13.646,0,0,1-1.365,1.166c-.064.049-.128.092-.192.139-.085.062-.171.124-.256.182-.13.092-.263.179-.4.265l-.021.013c-.184.12-.369.233-.555.34-.139.081-.273.158-.406.229a.128.128,0,0,0-.017.009,8.128,8.128,0,0,1-1.427.626c-.173.062-.346.12-.517.171a7.637,7.637,0,0,1-1.768.329h0c0,.03,0,.062.006.094h-.017c.017.273.036.634.058,1.027h.011a20.575,20.575,0,0,0,.85,4.767c.019.053.036.109.058.162.009.026.021.047.03.073a11.656,11.656,0,0,0,1.134,2.193,7.916,7.916,0,0,0,4.047,3.31v.009a6.041,6.041,0,0,0,.741.2,5.942,5.942,0,0,0,.741-.2v-.009a7.916,7.916,0,0,0,4.047-3.31,11.722,11.722,0,0,0,1.134-2.193c.009-.026.021-.047.03-.073.019-.053.036-.109.058-.162a20.6,20.6,0,0,0,.85-4.767h.011c.028-.393.047-.754.062-1.027Zm-.827.784a.658.658,0,0,0-.017.113,20.278,20.278,0,0,1-.807,4.637c-.013.032-.023.066-.034.1a.707.707,0,0,1-.026.068l-.023.058a10.948,10.948,0,0,1-1.2,2.285,7.056,7.056,0,0,1-3.5,2.755c-.032.011-.064.023-.094.036-.135.043-.269.077-.4.107-.128-.03-.261-.064-.4-.107a.723.723,0,0,0-.094-.038,7.07,7.07,0,0,1-3.5-2.755,10.961,10.961,0,0,1-1.2-2.281c-.009-.021-.017-.041-.03-.07a.527.527,0,0,1-.021-.062c-.011-.034-.023-.066-.032-.094a20.241,20.241,0,0,1-.809-4.641.657.657,0,0,0-.017-.113l-.009-.149a8.005,8.005,0,0,0,1.183-.271c.173-.051.35-.109.538-.175a8.974,8.974,0,0,0,1.548-.666c.011,0,.019-.011.028-.015.141-.075.284-.156.425-.235.184-.1.376-.22.589-.355a.184.184,0,0,0,.021-.015c.141-.09.28-.182.412-.273.077-.053.156-.109.233-.164l.043-.03.068-.049.128-.092c.305-.226.6-.463.888-.711.286.248.583.485.886.709.045.032.088.064.132.094l.073.051.026.019c.081.058.164.117.239.167.139.1.28.188.406.269l.036.023q.317.2.583.352c.147.085.29.164.427.237a.286.286,0,0,0,.026.013,8.9,8.9,0,0,0,1.555.671c.188.066.363.124.523.171a8.124,8.124,0,0,0,1.2.276Z" stroke="none"/><path d="M 65.62108612060547 12.04407691955566 L 66.09977722167969 12.48857688903809 L 66.98577880859375 13.21015739440918 C 67.04985046386719 13.25713729858398 67.11391448974609 13.30198669433594 67.17798614501953 13.34896659851074 C 67.26341247558594 13.41090774536133 67.34883880615234 13.47283744812012 67.43426513671875 13.53049659729004 C 67.56454467773438 13.62233734130859 67.69696044921875 13.70989799499512 67.82936096191406 13.79532814025879 C 67.83577728271484 13.79959678649902 67.84430694580078 13.80386734008789 67.85072326660156 13.80813789367676 C 68.03438568115234 13.92773818969727 68.22018432617188 14.04092788696289 68.40599822998047 14.14770698547363 C 68.54266357421875 14.22886657714844 68.67935180664063 14.30360794067383 68.811767578125 14.37622833251953 C 68.8160400390625 14.37835693359375 68.82244873046875 14.38262748718262 68.828857421875 14.38476753234863 C 69.39266967773438 14.69016647338867 69.89027404785156 14.90373802185059 70.25546264648438 15.01051712036133 C 70.428466796875 15.07244682312012 70.59930419921875 15.13011741638184 70.77229309082031 15.18136787414551 C 71.3040771484375 15.35221672058105 71.92341613769531 15.4675464630127 72.54062652587891 15.51025772094727 L 72.54063415527344 15.51026725769043 C 72.53851318359375 15.5401668548584 72.53636169433594 15.57219696044922 72.53422546386719 15.6042366027832 C 72.54063415527344 15.6042366027832 72.54490661621094 15.6042366027832 72.54917907714844 15.6042366027832 C 72.53421783447266 15.87758827209473 72.51498413085938 16.23852729797363 72.48723602294922 16.6314868927002 C 72.485107421875 16.6314868927002 72.48081970214844 16.6314868927002 72.4765625 16.6314868927002 C 72.37190246582031 18.09440803527832 72.07505798339844 20.17453765869141 71.62657165527344 21.39827728271484 C 71.60519409179688 21.45166778564453 71.58811950683594 21.50719833374023 71.56889343261719 21.56058692932129 C 71.56035614013672 21.58621788024902 71.54754638671875 21.60756683349609 71.53900146484375 21.63319778442383 C 71.22505187988281 22.43192672729492 70.8427734375 23.16659736633301 70.40496826171875 23.82651710510254 C 69.34355163574219 25.44747734069824 67.94468688964844 26.61354827880859 66.35789489746094 27.13678741455078 L 66.35789489746094 27.14532852172852 C 66.06316375732422 27.24356842041016 65.81330108642578 27.30336761474609 65.6168212890625 27.34181785583496 C 65.42033386230469 27.30336761474609 65.17259979248047 27.24356842041016 64.87574005126953 27.14532852172852 L 64.87574005126953 27.13678741455078 C 63.28895568847656 26.61354827880859 61.89009094238281 25.44747734069824 60.82866668701172 23.82651710510254 C 60.39085388183594 23.16873741149902 60.00857543945313 22.43192672729492 59.69464111328125 21.63319778442383 C 59.68609619140625 21.60756683349609 59.67327880859375 21.58620643615723 59.66473388671875 21.56058692932129 C 59.64336395263672 21.50718688964844 59.62629699707031 21.45166778564453 59.60707092285156 21.39827728271484 C 59.15858459472656 20.17667770385742 58.86172485351563 18.09440803527832 58.757080078125 16.63147735595703 C 58.7528076171875 16.63147735595703 58.75066375732422 16.63147735595703 58.74639892578125 16.63147735595703 C 58.72503662109375 16.23851776123047 58.70582580566406 15.87759780883789 58.68873596191406 15.60422706604004 L 58.69086456298828 15.60422706604004 C 58.69728088378906 15.60422706604004 58.70156097412109 15.60422706604004 58.70582580566406 15.60422706604004 C 58.70368957519531 15.57219696044922 58.70156097412109 15.54015731811523 58.69941711425781 15.51025772094727 L 58.70156097412109 15.51025772094727 C 59.31875610351563 15.4675464630127 59.93809509277344 15.35221672058105 60.46987915039063 15.18136787414551 C 60.64072418212891 15.13011741638184 60.813720703125 15.07244682312012 60.98670959472656 15.01051712036133 C 61.35189819335938 14.90159797668457 61.84951019287109 14.68802833557129 62.41331481933594 14.38476753234863 C 62.41759490966797 14.38262748718262 62.42401123046875 14.37835693359375 62.43040466308594 14.37622833251953 C 62.56282043457031 14.30574798583984 62.69736480712891 14.22886657714844 62.83618927001953 14.14770698547363 C 63.02198791503906 14.04092788696289 63.20778656005859 13.92773818969727 63.39145660400391 13.80813789367676 C 63.39786529541016 13.80386734008789 63.40641021728516 13.79959678649902 63.41281127929688 13.79532814025879 C 63.54522705078125 13.70989799499512 63.67763519287109 13.62233734130859 63.80790710449219 13.53049659729004 C 63.89334106445313 13.47283744812012 63.978759765625 13.41090774536133 64.06419372558594 13.34896659851074 C 64.12825775146484 13.30198669433594 64.19232940673828 13.25927734375 64.25640106201172 13.21015739440918 C 64.72623443603516 12.85990715026855 65.18754577636719 12.46694755554199 65.62108612060547 12.04407691955566 Z M 65.62107849121094 26.54734802246094 C 65.74921417236328 26.51744842529297 65.88376617431641 26.4832763671875 66.018310546875 26.44056701660156 C 66.04821014404297 26.42775726318359 66.08024597167969 26.41493606567383 66.11228942871094 26.40425872802734 C 67.44921875 25.97071838378906 68.66226196289063 25.00539779663086 69.61691284179688 23.64924621582031 C 70.08247375488281 22.97652816772461 70.48825836181641 22.20981788635254 70.81501770019531 21.36409759521484 C 70.82142639160156 21.34914779663086 70.82997131347656 21.32778739929199 70.8385009765625 21.30643653869629 C 70.84918212890625 21.28080749511719 70.85772705078125 21.25944709777832 70.8641357421875 21.23809814453125 C 70.87480926513672 21.20391654968262 70.88548278808594 21.16974830627441 70.89830017089844 21.13771820068359 C 71.33612060546875 19.9246768951416 71.60948181152344 17.88083648681641 71.70558166503906 16.50120735168457 C 71.70773315429688 16.46276664733887 71.71412658691406 16.42431831359863 71.72267150878906 16.38800811767578 L 71.72906494140625 16.23636817932129 C 71.31047821044922 16.17229652404785 70.90470886230469 16.07832717895508 70.53096771240234 15.96086692810059 C 70.37078857421875 15.91388702392578 70.19566345214844 15.8562183380127 70.00772094726563 15.79001808166504 C 69.57418823242188 15.6618766784668 69.03813171386719 15.42908668518066 68.45297241210938 15.11941719055176 C 68.44441223144531 15.11514663696289 68.43374633789063 15.11087799072266 68.42732238769531 15.10659790039063 C 68.29065704345703 15.03398704528809 68.14756774902344 14.9549674987793 68.00019836425781 14.86954689025879 C 67.82293701171875 14.76916694641113 67.62860107421875 14.65170669555664 67.41716766357422 14.51715660095215 L 67.380859375 14.49366760253906 C 67.25485229492188 14.41251754760742 67.11389923095703 14.32067680358887 66.97507476806641 14.22457695007324 C 66.90032958984375 14.17545700073242 66.81703948974609 14.11565780639648 66.73588562011719 14.05799674987793 L 66.71026611328125 14.03876686096191 L 66.63764953613281 13.98751831054688 C 66.59279632568359 13.95761680603027 66.55007934570313 13.92558670043945 66.50523376464844 13.89354705810547 C 66.20198059082031 13.66930770874023 65.90512084960938 13.43224716186523 65.61893463134766 13.18450736999512 C 65.33488464355469 13.43224716186523 65.03590393066406 13.66930770874023 64.73050689697266 13.89568710327148 C 64.68992614746094 13.92558670043945 64.647216796875 13.95547676086426 64.60235595703125 13.98751831054688 L 64.53401947021484 14.0366382598877 L 64.49131011962891 14.06653785705566 C 64.41442108154297 14.12205696105957 64.33541107177734 14.17758750915527 64.25851440429688 14.23097801208496 C 64.12610626220703 14.32281684875488 63.98729705810547 14.41464805603027 63.84633636474609 14.50434684753418 C 63.84206390380859 14.50861740112305 63.83139801025391 14.51502799987793 63.82497406005859 14.51929664611816 C 63.61140441894531 14.65384674072266 63.41920471191406 14.77130699157715 63.23553466796875 14.87381744384766 C 63.09457397460938 14.95283699035645 62.95148468017578 15.03398704528809 62.810546875 15.10873794555664 C 62.80199432373047 15.11300659179688 62.79345703125 15.11941719055176 62.78279113769531 15.12368774414063 C 62.19974517822266 15.43122673034668 61.66582489013672 15.6618766784668 61.23442077636719 15.79001808166504 C 61.04650115966797 15.8562183380127 60.86922454833984 15.91388702392578 60.69623565673828 15.96513748168945 C 60.33103942871094 16.08046722412109 59.92953491210938 16.17229652404785 59.51308441162109 16.23636817932129 L 59.52161407470703 16.38586807250977 C 59.53016662597656 16.42216682434082 59.53657531738281 16.46061706542969 59.53870391845703 16.49904823303223 C 59.63480377197266 17.87869644165039 59.90818023681641 19.92252731323242 60.34812927246094 21.13984680175781 C 60.35665893554688 21.1676082611084 60.36947631835938 21.19964790344238 60.38015747070313 21.23381805419922 C 60.38656616210938 21.25517654418945 60.39297485351563 21.27653694152832 60.40151977539063 21.29575729370117 C 60.41431427001953 21.32564735412598 60.42286682128906 21.34486770629883 60.43140411376953 21.3662281036377 C 60.75817108154297 22.20981788635254 61.16180419921875 22.9743766784668 61.62738800048828 23.64711761474609 C 62.58203125 25.00112724304199 63.79296112060547 25.9664478302002 65.13201904296875 26.40211868286133 C 65.16404724121094 26.41279602050781 65.19609069824219 26.42561721801758 65.22599029541016 26.44056701660156 C 65.36052703857422 26.4832763671875 65.49295043945313 26.51744842529297 65.62107849121094 26.54734802246094 Z" stroke="none" fill="#ccc"/></g><g transform="translate(-293.361 -386.503)" fill="#ccc" stroke-linejoin="round"><path d="M303.678,392.427l-4,4.1-2.05-2.1a.359.359,0,0,0-.515,0,.382.382,0,0,0,0,.528l2.307,2.364a.358.358,0,0,0,.256.109.354.354,0,0,0,.256-.109l4.261-4.367a.382.382,0,0,0,0-.527A.356.356,0,0,0,303.678,392.427Z" stroke="none"/><path d="M 303.9349975585938 392.3179931640625 C 304.0276489257813 392.3179931640625 304.1200256347656 392.3543090820313 304.1904907226563 392.4269409179688 C 304.3314514160156 392.5721435546875 304.3314514160156 392.8092041015625 304.1904907226563 392.9544067382813 L 299.9298095703125 397.3218994140625 C 299.859375 397.3944702148438 299.7675170898438 397.4307861328125 299.6735534667969 397.4307861328125 C 299.5817260742188 397.4307861328125 299.4877624511719 397.3944702148438 299.4172668457031 397.3218994140625 L 297.1107482910156 394.9577026367188 C 296.9697875976563 394.8124389648438 296.9697875976563 394.5753784179688 297.1107482910156 394.43017578125 C 297.1822814941406 394.3575744628906 297.2757263183594 394.3212585449219 297.368896484375 394.3212585449219 C 297.4620361328125 394.3212585449219 297.554931640625 394.3575744628906 297.6254272460938 394.43017578125 L 299.6756896972656 396.5316772460938 L 303.6778869628906 392.4269409179688 C 303.7494506835938 392.3543090820313 303.8423767089844 392.3179931640625 303.9349975585938 392.3179931640625 Z" stroke="none" fill="#ccc"/></g></g><rect width="24" height="24" transform="translate(149 -2696)" fill="none"/></g></svg>